<mxfile host="Electron" agent="Mozilla/5.0 (Windows NT 10.0; Win64; x64) AppleWebKit/537.36 (KHTML, like Gecko) draw.io/28.1.2 Chrome/138.0.7204.243 Electron/37.4.0 Safari/537.36" version="28.1.2" pages="2">
  <diagram name="Arquitetura 1 – S3 + Lambda (serverless)" id="NjkCGwwYMCRYMDk2Q0Zz">
    <mxGraphModel dx="872" dy="563" grid="1" gridSize="10" guides="1" tooltips="1" connect="1" arrows="1" fold="1" page="1" pageScale="1" pageWidth="827" pageHeight="1169" math="0" shadow="0">
      <root>
        <mxCell id="0" />
        <mxCell id="1" parent="0" />
        <mxCell id="-SbDtvEhsxBQ7XKttUdw-6" value="" style="rounded=1;whiteSpace=wrap;html=1;fillColor=#ffe6cc;strokeColor=#d79b00;" vertex="1" parent="1">
          <mxGeometry x="350" y="100" width="390" height="240" as="geometry" />
        </mxCell>
        <mxCell id="brJKbokAN7egzC4AHvS9-8" style="edgeStyle=orthogonalEdgeStyle;rounded=0;orthogonalLoop=1;jettySize=auto;html=1;shape=wire;dashed=1;flowAnimation=1;" edge="1" parent="1" source="brJKbokAN7egzC4AHvS9-1" target="brJKbokAN7egzC4AHvS9-2">
          <mxGeometry relative="1" as="geometry">
            <Array as="points">
              <mxPoint x="140" y="450" />
              <mxPoint x="140" y="261" />
            </Array>
          </mxGeometry>
        </mxCell>
        <mxCell id="-SbDtvEhsxBQ7XKttUdw-1" value="UPLOAD" style="edgeLabel;html=1;align=center;verticalAlign=middle;resizable=0;points=[];" vertex="1" connectable="0" parent="brJKbokAN7egzC4AHvS9-8">
          <mxGeometry x="0.0113" y="-1" relative="1" as="geometry">
            <mxPoint as="offset" />
          </mxGeometry>
        </mxCell>
        <mxCell id="brJKbokAN7egzC4AHvS9-1" value="&lt;font style=&quot;color: rgb(0, 0, 0);&quot;&gt;User&lt;/font&gt;" style="sketch=0;outlineConnect=0;fillColor=#d80073;strokeColor=#A50040;dashed=0;verticalLabelPosition=bottom;verticalAlign=top;align=center;html=1;fontSize=12;fontStyle=0;aspect=fixed;pointerEvents=1;shape=mxgraph.aws4.user;fontColor=#ffffff;shadow=1;" vertex="1" parent="1">
          <mxGeometry x="40" y="410" width="70" height="70" as="geometry" />
        </mxCell>
        <mxCell id="brJKbokAN7egzC4AHvS9-7" style="edgeStyle=orthogonalEdgeStyle;rounded=0;orthogonalLoop=1;jettySize=auto;html=1;exitX=1;exitY=0.5;exitDx=0;exitDy=0;exitPerimeter=0;shape=wire;dashed=1;dashPattern=8 8;flowAnimation=1;" edge="1" parent="1" source="brJKbokAN7egzC4AHvS9-2" target="brJKbokAN7egzC4AHvS9-4">
          <mxGeometry relative="1" as="geometry" />
        </mxCell>
        <mxCell id="-SbDtvEhsxBQ7XKttUdw-2" value="EVENTO" style="edgeLabel;html=1;align=center;verticalAlign=middle;resizable=0;points=[];" vertex="1" connectable="0" parent="brJKbokAN7egzC4AHvS9-7">
          <mxGeometry x="0.0954" y="2" relative="1" as="geometry">
            <mxPoint as="offset" />
          </mxGeometry>
        </mxCell>
        <mxCell id="brJKbokAN7egzC4AHvS9-2" value="&lt;font style=&quot;color: rgb(0, 0, 0);&quot;&gt;S3&lt;/font&gt;" style="outlineConnect=0;dashed=0;verticalLabelPosition=bottom;verticalAlign=top;align=center;html=1;shape=mxgraph.aws3.s3;fillColor=#a20025;fontColor=#ffffff;strokeColor=#6F0000;shadow=1;" vertex="1" parent="1">
          <mxGeometry x="160" y="219.13" width="70" height="75.75" as="geometry" />
        </mxCell>
        <mxCell id="brJKbokAN7egzC4AHvS9-4" value="Lambda" style="verticalLabelPosition=bottom;html=1;verticalAlign=top;strokeWidth=1;align=center;outlineConnect=0;dashed=0;outlineConnect=0;shape=mxgraph.aws3d.lambda;aspect=fixed;strokeColor2=#292929;strokeColor3=#ffffff;shadow=1;labelBackgroundColor=default;" vertex="1" parent="1">
          <mxGeometry x="370" y="214.25" width="71.84" height="85.5" as="geometry" />
        </mxCell>
        <mxCell id="brJKbokAN7egzC4AHvS9-5" value="DynamoDB" style="sketch=0;points=[[0,0,0],[0.25,0,0],[0.5,0,0],[0.75,0,0],[1,0,0],[0,1,0],[0.25,1,0],[0.5,1,0],[0.75,1,0],[1,1,0],[0,0.25,0],[0,0.5,0],[0,0.75,0],[1,0.25,0],[1,0.5,0],[1,0.75,0]];outlineConnect=0;dashed=0;verticalLabelPosition=bottom;verticalAlign=top;align=center;html=1;fontSize=12;fontStyle=0;aspect=fixed;shape=mxgraph.aws4.resourceIcon;resIcon=mxgraph.aws4.dynamodb;fillColor=#d0cee2;strokeColor=#56517e;shadow=1;labelBackgroundColor=default;" vertex="1" parent="1">
          <mxGeometry x="640" y="219.13" width="75.75" height="75.75" as="geometry" />
        </mxCell>
        <mxCell id="brJKbokAN7egzC4AHvS9-6" style="edgeStyle=orthogonalEdgeStyle;rounded=0;orthogonalLoop=1;jettySize=auto;html=1;entryX=0;entryY=0.5;entryDx=0;entryDy=0;entryPerimeter=0;flowAnimation=1;shape=wire;dashed=1;" edge="1" parent="1" source="brJKbokAN7egzC4AHvS9-4" target="brJKbokAN7egzC4AHvS9-5">
          <mxGeometry relative="1" as="geometry" />
        </mxCell>
        <mxCell id="-SbDtvEhsxBQ7XKttUdw-3" value="PROCESSAMENTO" style="edgeLabel;html=1;align=center;verticalAlign=middle;resizable=0;points=[];labelBackgroundColor=default;" vertex="1" connectable="0" parent="brJKbokAN7egzC4AHvS9-6">
          <mxGeometry x="-0.3034" y="-1" relative="1" as="geometry">
            <mxPoint x="26" y="-1" as="offset" />
          </mxGeometry>
        </mxCell>
        <mxCell id="-SbDtvEhsxBQ7XKttUdw-5" style="edgeStyle=orthogonalEdgeStyle;rounded=0;orthogonalLoop=1;jettySize=auto;html=1;shape=wire;dashed=1;flowAnimation=1;" edge="1" parent="1" source="-SbDtvEhsxBQ7XKttUdw-4">
          <mxGeometry relative="1" as="geometry">
            <mxPoint x="539" y="240" as="targetPoint" />
          </mxGeometry>
        </mxCell>
        <mxCell id="-SbDtvEhsxBQ7XKttUdw-4" value="" style="sketch=0;points=[[0,0,0],[0.25,0,0],[0.5,0,0],[0.75,0,0],[1,0,0],[0,1,0],[0.25,1,0],[0.5,1,0],[0.75,1,0],[1,1,0],[0,0.25,0],[0,0.5,0],[0,0.75,0],[1,0.25,0],[1,0.5,0],[1,0.75,0]];points=[[0,0,0],[0.25,0,0],[0.5,0,0],[0.75,0,0],[1,0,0],[0,1,0],[0.25,1,0],[0.5,1,0],[0.75,1,0],[1,1,0],[0,0.25,0],[0,0.5,0],[0,0.75,0],[1,0.25,0],[1,0.5,0],[1,0.75,0]];outlineConnect=0;fontColor=#ffffff;fillColor=#6d8764;strokeColor=#3A5431;dashed=0;verticalLabelPosition=bottom;verticalAlign=top;align=center;html=1;fontSize=12;fontStyle=0;aspect=fixed;shape=mxgraph.aws4.resourceIcon;resIcon=mxgraph.aws4.cloudwatch_2;shadow=1;" vertex="1" parent="1">
          <mxGeometry x="500" y="110" width="78" height="78" as="geometry" />
        </mxCell>
      </root>
    </mxGraphModel>
  </diagram>
  <diagram id="TJ14ZeX4o4Xk3dgzz3kE" name="Arquitetura 2 – EC2 + EBS (infra tradicional)">
    <mxGraphModel dx="872" dy="563" grid="1" gridSize="10" guides="1" tooltips="1" connect="1" arrows="1" fold="1" page="1" pageScale="1" pageWidth="827" pageHeight="1169" math="0" shadow="0">
      <root>
        <mxCell id="0" />
        <mxCell id="1" parent="0" />
        <mxCell id="Q_d34PwR9s97mBENuFLp-1" value="&lt;font style=&quot;color: rgb(0, 0, 0);&quot;&gt;User&lt;/font&gt;" style="sketch=0;outlineConnect=0;fillColor=#d80073;strokeColor=#A50040;dashed=0;verticalLabelPosition=bottom;verticalAlign=top;align=center;html=1;fontSize=12;fontStyle=0;aspect=fixed;pointerEvents=1;shape=mxgraph.aws4.user;fontColor=#ffffff;textShadow=1;labelBackgroundColor=default;shadow=1;" vertex="1" parent="1">
          <mxGeometry x="20" y="410" width="80" height="80" as="geometry" />
        </mxCell>
        <mxCell id="Q_d34PwR9s97mBENuFLp-6" value="" style="outlineConnect=0;dashed=0;verticalLabelPosition=bottom;verticalAlign=top;align=center;html=1;shape=mxgraph.aws3.rds;fillColor=#2E73B8;gradientColor=none;textShadow=1;labelBackgroundColor=default;shadow=1;" vertex="1" parent="1">
          <mxGeometry x="374.25" y="450" width="68" height="70" as="geometry" />
        </mxCell>
        <mxCell id="XjVhGmaZ_4LHyrVgzMSc-4" style="edgeStyle=orthogonalEdgeStyle;rounded=0;orthogonalLoop=1;jettySize=auto;html=1;" edge="1" parent="1" source="XjVhGmaZ_4LHyrVgzMSc-1" target="Q_d34PwR9s97mBENuFLp-3">
          <mxGeometry relative="1" as="geometry" />
        </mxCell>
        <mxCell id="w-SdKQoRDv8zJ8WB8dBS-2" value="encaminha" style="edgeLabel;html=1;align=center;verticalAlign=middle;resizable=0;points=[];" vertex="1" connectable="0" parent="XjVhGmaZ_4LHyrVgzMSc-4">
          <mxGeometry x="0.2167" y="-2" relative="1" as="geometry">
            <mxPoint x="-13" y="-2" as="offset" />
          </mxGeometry>
        </mxCell>
        <mxCell id="XjVhGmaZ_4LHyrVgzMSc-1" value="ELB" style="sketch=0;points=[[0,0,0],[0.25,0,0],[0.5,0,0],[0.75,0,0],[1,0,0],[0,1,0],[0.25,1,0],[0.5,1,0],[0.75,1,0],[1,1,0],[0,0.25,0],[0,0.5,0],[0,0.75,0],[1,0.25,0],[1,0.5,0],[1,0.75,0]];outlineConnect=0;fontColor=#232F3E;fillColor=#8C4FFF;strokeColor=#ffffff;dashed=0;verticalLabelPosition=bottom;verticalAlign=top;align=center;html=1;fontSize=12;fontStyle=0;aspect=fixed;shape=mxgraph.aws4.resourceIcon;resIcon=mxgraph.aws4.elastic_load_balancing;textShadow=1;labelBackgroundColor=default;shadow=1;" vertex="1" parent="1">
          <mxGeometry x="170" y="230" width="80" height="80" as="geometry" />
        </mxCell>
        <mxCell id="XjVhGmaZ_4LHyrVgzMSc-2" value="EBS" style="outlineConnect=0;dashed=0;verticalLabelPosition=bottom;verticalAlign=top;align=center;html=1;shape=mxgraph.aws3.volume;fillColor=#647687;strokeColor=#314354;fontColor=#000000;textShadow=1;labelBackgroundColor=default;shadow=1;" vertex="1" parent="1">
          <mxGeometry x="632" y="232.5" width="52.5" height="75" as="geometry" />
        </mxCell>
        <mxCell id="XjVhGmaZ_4LHyrVgzMSc-3" style="edgeStyle=orthogonalEdgeStyle;rounded=0;orthogonalLoop=1;jettySize=auto;html=1;entryX=0;entryY=0.5;entryDx=0;entryDy=0;entryPerimeter=0;" edge="1" parent="1" source="Q_d34PwR9s97mBENuFLp-1" target="XjVhGmaZ_4LHyrVgzMSc-1">
          <mxGeometry relative="1" as="geometry" />
        </mxCell>
        <mxCell id="w-SdKQoRDv8zJ8WB8dBS-1" value="rota" style="edgeLabel;html=1;align=center;verticalAlign=middle;resizable=0;points=[];" vertex="1" connectable="0" parent="XjVhGmaZ_4LHyrVgzMSc-3">
          <mxGeometry x="-0.0077" y="-3" relative="1" as="geometry">
            <mxPoint as="offset" />
          </mxGeometry>
        </mxCell>
        <mxCell id="XjVhGmaZ_4LHyrVgzMSc-5" style="edgeStyle=orthogonalEdgeStyle;rounded=0;orthogonalLoop=1;jettySize=auto;html=1;entryX=0;entryY=0.5;entryDx=0;entryDy=0;entryPerimeter=0;" edge="1" parent="1" source="Q_d34PwR9s97mBENuFLp-3" target="XjVhGmaZ_4LHyrVgzMSc-2">
          <mxGeometry relative="1" as="geometry" />
        </mxCell>
        <mxCell id="XjVhGmaZ_4LHyrVgzMSc-10" value="processa" style="edgeLabel;html=1;align=center;verticalAlign=middle;resizable=0;points=[];" vertex="1" connectable="0" parent="XjVhGmaZ_4LHyrVgzMSc-5">
          <mxGeometry x="-0.0243" y="2" relative="1" as="geometry">
            <mxPoint x="1" as="offset" />
          </mxGeometry>
        </mxCell>
        <mxCell id="w-SdKQoRDv8zJ8WB8dBS-4" style="edgeStyle=orthogonalEdgeStyle;rounded=0;orthogonalLoop=1;jettySize=auto;html=1;" edge="1" parent="1" source="Q_d34PwR9s97mBENuFLp-3">
          <mxGeometry relative="1" as="geometry">
            <mxPoint x="408.25" y="440" as="targetPoint" />
          </mxGeometry>
        </mxCell>
        <mxCell id="w-SdKQoRDv8zJ8WB8dBS-5" value="requisição" style="edgeLabel;html=1;align=center;verticalAlign=middle;resizable=0;points=[];textShadow=0;" vertex="1" connectable="0" parent="w-SdKQoRDv8zJ8WB8dBS-4">
          <mxGeometry x="0.0814" relative="1" as="geometry">
            <mxPoint as="offset" />
          </mxGeometry>
        </mxCell>
        <mxCell id="Q_d34PwR9s97mBENuFLp-3" value="EC2" style="outlineConnect=0;dashed=0;verticalLabelPosition=bottom;verticalAlign=top;align=center;html=1;shape=mxgraph.aws3.ec2;fillColor=#F58534;gradientColor=none;textShadow=1;labelBorderColor=none;labelBackgroundColor=default;shadow=1;" vertex="1" parent="1">
          <mxGeometry x="370" y="223.5" width="76.5" height="93" as="geometry" />
        </mxCell>
        <mxCell id="w-SdKQoRDv8zJ8WB8dBS-6" value="Resposta com dados" style="text;html=1;align=center;verticalAlign=middle;resizable=0;points=[];autosize=1;strokeColor=none;fillColor=none;labelBackgroundColor=default;textShadow=1;" vertex="1" parent="1">
          <mxGeometry x="338.25" y="530" width="140" height="30" as="geometry" />
        </mxCell>
        <mxCell id="w-SdKQoRDv8zJ8WB8dBS-7" value="&lt;font style=&quot;color: rgb(255, 255, 255);&quot;&gt;&lt;span&gt;RDS&lt;/span&gt;&lt;/font&gt;" style="text;strokeColor=none;align=center;fillColor=none;html=1;verticalAlign=middle;whiteSpace=wrap;rounded=0;textShadow=1;labelBackgroundColor=none;fontStyle=1" vertex="1" parent="1">
          <mxGeometry x="378.25" y="470" width="60" height="30" as="geometry" />
        </mxCell>
      </root>
    </mxGraphModel>
  </diagram>
</mxfile>
